<svg width="22" height="27" viewBox="0 0 22 27" fill="none" xmlns="http://www.w3.org/2000/svg">
<path d="M19.7386 8.00066C19.7525 8.24049 19.7525 8.48038 19.7525 8.72022C19.7525 16.0355 15.2157 24.4645 6.92385 24.4645C4.36928 24.4645 1.9962 23.5565 0 21.9804C0.362957 22.0317 0.711906 22.0489 1.08883 22.0489C3.19666 22.0489 5.13704 21.1752 6.68654 19.6847C4.7043 19.6333 3.04313 18.04 2.47079 15.8471C2.75 15.8985 3.02917 15.9328 3.32234 15.9328C3.72715 15.9328 4.132 15.8642 4.50888 15.7443C2.4429 15.2303 0.893363 13.0032 0.893363 10.3135V10.245C1.49359 10.6561 2.19162 10.9131 2.93141 10.9473C1.71695 9.95368 0.921293 8.25763 0.921293 6.33884C0.921293 5.31094 1.1446 4.36868 1.53549 3.54634C3.75504 6.9042 7.09135 9.09706 10.8324 9.33695C10.7626 8.92578 10.7207 8.49752 10.7207 8.06921C10.7207 5.01969 12.7309 2.53558 15.2296 2.53558C16.5278 2.53558 17.7004 3.20373 18.524 4.28304C19.543 4.04321 20.5202 3.58062 21.3857 2.94675C21.0506 4.23168 20.3387 5.31099 19.4035 5.99622C20.3109 5.87636 21.1903 5.56792 21.9999 5.13966C21.3858 6.23606 20.618 7.21254 19.7386 8.00066Z" fill="#FAF9F7"/>
</svg>
