<svg width="65" height="66" viewBox="0 0 65 66" fill="none" xmlns="http://www.w3.org/2000/svg">
<path d="M32.3691 0L27.396 6.00709L29.3154 8.03546L27.9195 20.2837L25.1275 22.4681L27.9195 23.7163L25.1275 27.539L15.2685 21.5319L32.1946 62.8014L49.3826 21.5319L39.9597 27.539L36.4698 23.7163L39.4362 22.4681L36.4698 20.2837L35.1611 8.03546L37.4295 6.00709L32.3691 0ZM65 18.5674L48.5101 34.2482L46.5034 43.4539L65 18.5674ZM16.0537 34.2482L18.4094 43.4539L0 18.5674L16.0537 34.2482ZM6.89262 38.383L12.7383 42.2837L11.4295 43.4539L28.3557 58.9007L30.4497 66L5.0604 43.4539L7.7651 41.0355L6.89262 38.383ZM52.0872 42.2837L57.0604 38.9291L56.6242 41.0355L59.5906 43.4539L34.4631 66L36.4698 58.9007L53.3087 43.4539L52.0872 42.2837Z" fill="#FAF9F7"/>
<path d="M32.3691 0L27.396 6.00709L29.3154 8.03546L27.9195 20.2837L25.1275 22.4681L27.9195 23.7163L25.1275 27.539L15.2685 21.5319L32.1946 62.8014L49.3826 21.5319L39.9597 27.539L36.4698 23.7163L39.4362 22.4681L36.4698 20.2837L35.1611 8.03546L37.4295 6.00709L32.3691 0ZM65 18.5674L48.5101 34.2482L46.5034 43.4539L65 18.5674ZM16.0537 34.2482L18.4094 43.4539L0 18.5674L16.0537 34.2482ZM6.89262 38.383L12.7383 42.2837L11.4295 43.4539L28.3557 58.9007L30.4497 66L5.0604 43.4539L7.7651 41.0355L6.89262 38.383ZM52.0872 42.2837L57.0604 38.9291L56.6242 41.0355L59.5906 43.4539L34.4631 66L36.4698 58.9007L53.3087 43.4539L52.0872 42.2837Z" stroke="white"/>
</svg>
