<svg width="33" height="31" viewBox="0 0 33 31" fill="none" xmlns="http://www.w3.org/2000/svg">
<path d="M31.4907 7.51284C31.1309 6.0809 30.0706 4.95316 28.7245 4.57044C26.2844 3.875 16.5001 3.875 16.5001 3.875C16.5001 3.875 6.71579 3.875 4.27568 4.57044C2.92949 4.95322 1.86925 6.0809 1.5094 7.51284C0.855591 10.1083 0.855591 15.5235 0.855591 15.5235C0.855591 15.5235 0.855591 20.9387 1.5094 23.5341C1.86925 24.9661 2.92949 26.0468 4.27568 26.4296C6.71579 27.125 16.5001 27.125 16.5001 27.125C16.5001 27.125 26.2843 27.125 28.7245 26.4296C30.0706 26.0468 31.1309 24.9661 31.4907 23.5341C32.1445 20.9387 32.1445 15.5235 32.1445 15.5235C32.1445 15.5235 32.1445 10.1083 31.4907 7.51284ZM13.3 20.4401V10.6069L21.4778 15.5236L13.3 20.4401Z" fill="white"/>
</svg>
